<mxfile host="app.diagrams.net" modified="2024-01-29T21:15:21.219Z" agent="Mozilla/5.0 (X11; Linux x86_64; rv:109.0) Gecko/20100101 Firefox/115.0" etag="ak7ake13agNuqt6rUyFL" version="23.0.2" type="github">
  <diagram id="prtHgNgQTEPvFCAcTncT" name="Page-1">
    <mxGraphModel dx="954" dy="484" grid="1" gridSize="10" guides="1" tooltips="1" connect="1" arrows="1" fold="1" page="1" pageScale="1" pageWidth="827" pageHeight="1169" background="none" math="0" shadow="0">
      <root>
        <mxCell id="0" />
        <mxCell id="1" parent="0" />
        <mxCell id="BNHHhz5GZTbi07ixVVYn-26" value="" style="rounded=0;whiteSpace=wrap;html=1;fillColor=none;strokeColor=#6c8ebf;" parent="1" vertex="1">
          <mxGeometry x="12" y="630" width="804" height="490" as="geometry" />
        </mxCell>
        <mxCell id="flsEj916UsUJstXm0F3e-42" value="" style="rounded=0;whiteSpace=wrap;html=1;fillColor=none;strokeColor=#82b366;" parent="1" vertex="1">
          <mxGeometry x="12" y="330" width="804" height="290" as="geometry" />
        </mxCell>
        <mxCell id="fg8mFgqlS8MZBrGLz2TC-24" value="" style="rounded=0;whiteSpace=wrap;html=1;fillColor=none;strokeColor=#9673a6;" parent="1" vertex="1">
          <mxGeometry x="12" y="10" width="804" height="310" as="geometry" />
        </mxCell>
        <mxCell id="fg8mFgqlS8MZBrGLz2TC-1" value="main_menu()" style="rounded=0;whiteSpace=wrap;html=1;" parent="1" vertex="1">
          <mxGeometry x="324" y="40" width="120" height="60" as="geometry" />
        </mxCell>
        <mxCell id="fg8mFgqlS8MZBrGLz2TC-2" value="preset_scan()" style="rounded=0;whiteSpace=wrap;html=1;" parent="1" vertex="1">
          <mxGeometry x="150" y="140" width="120" height="60" as="geometry" />
        </mxCell>
        <mxCell id="fg8mFgqlS8MZBrGLz2TC-3" value="results_menu()" style="rounded=0;whiteSpace=wrap;html=1;" parent="1" vertex="1">
          <mxGeometry x="324" y="140" width="120" height="60" as="geometry" />
        </mxCell>
        <mxCell id="fg8mFgqlS8MZBrGLz2TC-4" value="choose_interfaces()" style="rounded=0;whiteSpace=wrap;html=1;" parent="1" vertex="1">
          <mxGeometry x="40" y="240" width="120" height="60" as="geometry" />
        </mxCell>
        <mxCell id="fg8mFgqlS8MZBrGLz2TC-5" value="Results menu subroutine group" style="shape=hexagon;perimeter=hexagonPerimeter2;whiteSpace=wrap;html=1;fixedSize=1;" parent="1" vertex="1">
          <mxGeometry x="324" y="230" width="120" height="80" as="geometry" />
        </mxCell>
        <mxCell id="fg8mFgqlS8MZBrGLz2TC-6" value="" style="endArrow=none;html=1;rounded=0;entryX=0.5;entryY=1;entryDx=0;entryDy=0;exitX=0.5;exitY=0;exitDx=0;exitDy=0;" parent="1" source="fg8mFgqlS8MZBrGLz2TC-5" target="fg8mFgqlS8MZBrGLz2TC-3" edge="1">
          <mxGeometry width="50" height="50" relative="1" as="geometry">
            <mxPoint x="390" y="220" as="sourcePoint" />
            <mxPoint x="440" y="170" as="targetPoint" />
          </mxGeometry>
        </mxCell>
        <mxCell id="fg8mFgqlS8MZBrGLz2TC-8" value="" style="endArrow=none;html=1;rounded=0;exitX=0.5;exitY=0;exitDx=0;exitDy=0;entryX=0;entryY=0.75;entryDx=0;entryDy=0;" parent="1" source="fg8mFgqlS8MZBrGLz2TC-2" target="fg8mFgqlS8MZBrGLz2TC-1" edge="1">
          <mxGeometry width="50" height="50" relative="1" as="geometry">
            <mxPoint x="390" y="220" as="sourcePoint" />
            <mxPoint x="380" y="130" as="targetPoint" />
            <Array as="points">
              <mxPoint x="210" y="120" />
              <mxPoint x="210" y="85" />
            </Array>
          </mxGeometry>
        </mxCell>
        <mxCell id="fg8mFgqlS8MZBrGLz2TC-9" value="" style="endArrow=none;html=1;rounded=0;entryX=0.25;entryY=1;entryDx=0;entryDy=0;exitX=1;exitY=0.5;exitDx=0;exitDy=0;" parent="1" source="fg8mFgqlS8MZBrGLz2TC-4" target="fg8mFgqlS8MZBrGLz2TC-2" edge="1">
          <mxGeometry width="50" height="50" relative="1" as="geometry">
            <mxPoint x="320" y="320" as="sourcePoint" />
            <mxPoint x="370" y="270" as="targetPoint" />
            <Array as="points">
              <mxPoint x="180" y="270" />
            </Array>
          </mxGeometry>
        </mxCell>
        <mxCell id="fg8mFgqlS8MZBrGLz2TC-10" value="" style="endArrow=none;html=1;rounded=0;entryX=0;entryY=0.25;entryDx=0;entryDy=0;exitX=0.5;exitY=0;exitDx=0;exitDy=0;" parent="1" source="fg8mFgqlS8MZBrGLz2TC-4" target="fg8mFgqlS8MZBrGLz2TC-1" edge="1">
          <mxGeometry width="50" height="50" relative="1" as="geometry">
            <mxPoint x="320" y="320" as="sourcePoint" />
            <mxPoint x="370" y="270" as="targetPoint" />
            <Array as="points">
              <mxPoint x="100" y="55" />
            </Array>
          </mxGeometry>
        </mxCell>
        <mxCell id="fg8mFgqlS8MZBrGLz2TC-11" value="print_presets()" style="rounded=0;whiteSpace=wrap;html=1;" parent="1" vertex="1">
          <mxGeometry x="630" y="240" width="120" height="60" as="geometry" />
        </mxCell>
        <mxCell id="fg8mFgqlS8MZBrGLz2TC-12" value="" style="endArrow=none;html=1;rounded=0;entryX=1;entryY=0.75;entryDx=0;entryDy=0;exitX=0.75;exitY=0;exitDx=0;exitDy=0;" parent="1" source="fg8mFgqlS8MZBrGLz2TC-11" target="fg8mFgqlS8MZBrGLz2TC-1" edge="1">
          <mxGeometry width="50" height="50" relative="1" as="geometry">
            <mxPoint x="360" y="280" as="sourcePoint" />
            <mxPoint x="410" y="230" as="targetPoint" />
            <Array as="points">
              <mxPoint x="720" y="85" />
            </Array>
          </mxGeometry>
        </mxCell>
        <mxCell id="fg8mFgqlS8MZBrGLz2TC-13" value="manage_presets_menu()" style="rounded=0;whiteSpace=wrap;html=1;" parent="1" vertex="1">
          <mxGeometry x="470" y="140" width="140" height="60" as="geometry" />
        </mxCell>
        <mxCell id="fg8mFgqlS8MZBrGLz2TC-14" value="" style="endArrow=none;html=1;rounded=0;entryX=0.5;entryY=1;entryDx=0;entryDy=0;exitX=0.5;exitY=0;exitDx=0;exitDy=0;" parent="1" source="fg8mFgqlS8MZBrGLz2TC-3" target="fg8mFgqlS8MZBrGLz2TC-1" edge="1">
          <mxGeometry width="50" height="50" relative="1" as="geometry">
            <mxPoint x="360" y="280" as="sourcePoint" />
            <mxPoint x="410" y="230" as="targetPoint" />
          </mxGeometry>
        </mxCell>
        <mxCell id="fg8mFgqlS8MZBrGLz2TC-16" value="" style="endArrow=none;html=1;rounded=0;entryX=0.75;entryY=1;entryDx=0;entryDy=0;exitX=0.5;exitY=0;exitDx=0;exitDy=0;" parent="1" source="fg8mFgqlS8MZBrGLz2TC-13" target="fg8mFgqlS8MZBrGLz2TC-1" edge="1">
          <mxGeometry width="50" height="50" relative="1" as="geometry">
            <mxPoint x="350" y="240" as="sourcePoint" />
            <mxPoint x="400" y="190" as="targetPoint" />
            <Array as="points">
              <mxPoint x="540" y="120" />
              <mxPoint x="414" y="120" />
            </Array>
          </mxGeometry>
        </mxCell>
        <mxCell id="fg8mFgqlS8MZBrGLz2TC-21" value="attempt_create_preset()" style="rounded=0;whiteSpace=wrap;html=1;" parent="1" vertex="1">
          <mxGeometry x="470" y="240" width="140" height="60" as="geometry" />
        </mxCell>
        <mxCell id="fg8mFgqlS8MZBrGLz2TC-22" value="" style="endArrow=none;html=1;rounded=0;entryX=1;entryY=0.75;entryDx=0;entryDy=0;exitX=0.25;exitY=0;exitDx=0;exitDy=0;" parent="1" source="fg8mFgqlS8MZBrGLz2TC-11" target="fg8mFgqlS8MZBrGLz2TC-13" edge="1">
          <mxGeometry width="50" height="50" relative="1" as="geometry">
            <mxPoint x="360" y="280" as="sourcePoint" />
            <mxPoint x="410" y="230" as="targetPoint" />
            <Array as="points">
              <mxPoint x="660" y="185" />
            </Array>
          </mxGeometry>
        </mxCell>
        <mxCell id="fg8mFgqlS8MZBrGLz2TC-23" value="" style="endArrow=none;html=1;rounded=0;entryX=0.5;entryY=1;entryDx=0;entryDy=0;exitX=0.5;exitY=0;exitDx=0;exitDy=0;" parent="1" source="fg8mFgqlS8MZBrGLz2TC-21" target="fg8mFgqlS8MZBrGLz2TC-13" edge="1">
          <mxGeometry width="50" height="50" relative="1" as="geometry">
            <mxPoint x="360" y="280" as="sourcePoint" />
            <mxPoint x="410" y="230" as="targetPoint" />
          </mxGeometry>
        </mxCell>
        <mxCell id="fg8mFgqlS8MZBrGLz2TC-25" value="main.py" style="text;strokeColor=none;fillColor=none;html=1;fontSize=24;fontStyle=1;verticalAlign=middle;align=center;" parent="1" vertex="1">
          <mxGeometry x="12" y="10" width="106" height="30" as="geometry" />
        </mxCell>
        <mxCell id="fg8mFgqlS8MZBrGLz2TC-26" value="get_interfaces()" style="rounded=0;whiteSpace=wrap;html=1;" parent="1" vertex="1">
          <mxGeometry x="40" y="440" width="120" height="60" as="geometry" />
        </mxCell>
        <mxCell id="fg8mFgqlS8MZBrGLz2TC-28" value="handle_scan()" style="rounded=0;whiteSpace=wrap;html=1;" parent="1" vertex="1">
          <mxGeometry x="180" y="340" width="120" height="60" as="geometry" />
        </mxCell>
        <mxCell id="fg8mFgqlS8MZBrGLz2TC-29" value="" style="endArrow=none;html=1;rounded=0;entryX=0.5;entryY=1;entryDx=0;entryDy=0;exitX=0.25;exitY=0;exitDx=0;exitDy=0;" parent="1" source="fg8mFgqlS8MZBrGLz2TC-28" target="fg8mFgqlS8MZBrGLz2TC-2" edge="1">
          <mxGeometry width="50" height="50" relative="1" as="geometry">
            <mxPoint x="390" y="280" as="sourcePoint" />
            <mxPoint x="440" y="230" as="targetPoint" />
          </mxGeometry>
        </mxCell>
        <mxCell id="fg8mFgqlS8MZBrGLz2TC-31" value="" style="endArrow=none;html=1;rounded=0;exitX=0.75;exitY=0;exitDx=0;exitDy=0;entryX=0.25;entryY=1;entryDx=0;entryDy=0;" parent="1" source="fg8mFgqlS8MZBrGLz2TC-26" target="fg8mFgqlS8MZBrGLz2TC-28" edge="1">
          <mxGeometry width="50" height="50" relative="1" as="geometry">
            <mxPoint x="100" y="420" as="sourcePoint" />
            <mxPoint x="150" y="370" as="targetPoint" />
            <Array as="points">
              <mxPoint x="130" y="420" />
              <mxPoint x="210" y="420" />
            </Array>
          </mxGeometry>
        </mxCell>
        <mxCell id="fg8mFgqlS8MZBrGLz2TC-32" value="" style="endArrow=none;html=1;rounded=0;entryX=0.5;entryY=1;entryDx=0;entryDy=0;exitX=0.5;exitY=0;exitDx=0;exitDy=0;" parent="1" source="fg8mFgqlS8MZBrGLz2TC-26" target="fg8mFgqlS8MZBrGLz2TC-4" edge="1">
          <mxGeometry width="50" height="50" relative="1" as="geometry">
            <mxPoint x="140" y="390" as="sourcePoint" />
            <mxPoint x="190" y="340" as="targetPoint" />
          </mxGeometry>
        </mxCell>
        <mxCell id="fg8mFgqlS8MZBrGLz2TC-34" value="create_preset()" style="rounded=0;whiteSpace=wrap;html=1;" parent="1" vertex="1">
          <mxGeometry x="480" y="340" width="120" height="60" as="geometry" />
        </mxCell>
        <mxCell id="fg8mFgqlS8MZBrGLz2TC-35" value="" style="endArrow=none;html=1;rounded=0;entryX=0.5;entryY=1;entryDx=0;entryDy=0;exitX=0.5;exitY=0;exitDx=0;exitDy=0;" parent="1" source="fg8mFgqlS8MZBrGLz2TC-34" target="fg8mFgqlS8MZBrGLz2TC-21" edge="1">
          <mxGeometry width="50" height="50" relative="1" as="geometry">
            <mxPoint x="390" y="390" as="sourcePoint" />
            <mxPoint x="440" y="340" as="targetPoint" />
          </mxGeometry>
        </mxCell>
        <mxCell id="fg8mFgqlS8MZBrGLz2TC-37" value="delete_preset()" style="rounded=0;whiteSpace=wrap;html=1;" parent="1" vertex="1">
          <mxGeometry x="630" y="340" width="120" height="60" as="geometry" />
        </mxCell>
        <mxCell id="fg8mFgqlS8MZBrGLz2TC-39" value="get_presets()" style="rounded=0;whiteSpace=wrap;html=1;" parent="1" vertex="1">
          <mxGeometry x="630" y="440" width="120" height="60" as="geometry" />
        </mxCell>
        <mxCell id="flsEj916UsUJstXm0F3e-14" value="" style="ellipse;whiteSpace=wrap;html=1;aspect=fixed;" parent="1" vertex="1">
          <mxGeometry x="760" y="365" width="10" height="10" as="geometry" />
        </mxCell>
        <mxCell id="flsEj916UsUJstXm0F3e-15" value="" style="endArrow=none;html=1;rounded=0;entryX=1;entryY=0.5;entryDx=0;entryDy=0;exitX=0;exitY=0.5;exitDx=0;exitDy=0;" parent="1" source="flsEj916UsUJstXm0F3e-14" target="fg8mFgqlS8MZBrGLz2TC-37" edge="1">
          <mxGeometry width="50" height="50" relative="1" as="geometry">
            <mxPoint x="730" y="420" as="sourcePoint" />
            <mxPoint x="750" y="370" as="targetPoint" />
          </mxGeometry>
        </mxCell>
        <mxCell id="flsEj916UsUJstXm0F3e-18" value="" style="ellipse;whiteSpace=wrap;html=1;aspect=fixed;" parent="1" vertex="1">
          <mxGeometry x="620" y="150" width="10" height="10" as="geometry" />
        </mxCell>
        <mxCell id="flsEj916UsUJstXm0F3e-19" value="" style="endArrow=none;html=1;rounded=0;entryX=1;entryY=0.25;entryDx=0;entryDy=0;exitX=0;exitY=0.5;exitDx=0;exitDy=0;" parent="1" source="flsEj916UsUJstXm0F3e-18" target="fg8mFgqlS8MZBrGLz2TC-13" edge="1">
          <mxGeometry width="50" height="50" relative="1" as="geometry">
            <mxPoint x="590" y="215" as="sourcePoint" />
            <mxPoint x="610" y="165" as="targetPoint" />
          </mxGeometry>
        </mxCell>
        <mxCell id="flsEj916UsUJstXm0F3e-20" value="" style="ellipse;whiteSpace=wrap;html=1;aspect=fixed;" parent="1" vertex="1">
          <mxGeometry x="454" y="50" width="10" height="10" as="geometry" />
        </mxCell>
        <mxCell id="flsEj916UsUJstXm0F3e-21" value="" style="endArrow=none;html=1;rounded=0;entryX=1;entryY=0.25;entryDx=0;entryDy=0;exitX=0;exitY=0.5;exitDx=0;exitDy=0;" parent="1" source="flsEj916UsUJstXm0F3e-20" target="fg8mFgqlS8MZBrGLz2TC-1" edge="1">
          <mxGeometry width="50" height="50" relative="1" as="geometry">
            <mxPoint x="424" y="105" as="sourcePoint" />
            <mxPoint x="444" y="55" as="targetPoint" />
          </mxGeometry>
        </mxCell>
        <mxCell id="flsEj916UsUJstXm0F3e-22" value="add_cve_results()" style="rounded=0;whiteSpace=wrap;html=1;" parent="1" vertex="1">
          <mxGeometry x="180" y="440" width="120" height="60" as="geometry" />
        </mxCell>
        <mxCell id="flsEj916UsUJstXm0F3e-23" value="" style="endArrow=none;html=1;rounded=0;entryX=0.5;entryY=1;entryDx=0;entryDy=0;exitX=0.5;exitY=0;exitDx=0;exitDy=0;" parent="1" source="flsEj916UsUJstXm0F3e-22" target="fg8mFgqlS8MZBrGLz2TC-28" edge="1">
          <mxGeometry width="50" height="50" relative="1" as="geometry">
            <mxPoint x="210" y="440" as="sourcePoint" />
            <mxPoint x="260" y="390" as="targetPoint" />
          </mxGeometry>
        </mxCell>
        <mxCell id="flsEj916UsUJstXm0F3e-24" value="add_cpe_results()" style="rounded=0;whiteSpace=wrap;html=1;" parent="1" vertex="1">
          <mxGeometry x="324" y="440" width="120" height="60" as="geometry" />
        </mxCell>
        <mxCell id="flsEj916UsUJstXm0F3e-25" value="" style="endArrow=none;html=1;rounded=0;entryX=0.75;entryY=1;entryDx=0;entryDy=0;exitX=0.5;exitY=0;exitDx=0;exitDy=0;" parent="1" source="flsEj916UsUJstXm0F3e-24" target="fg8mFgqlS8MZBrGLz2TC-28" edge="1">
          <mxGeometry width="50" height="50" relative="1" as="geometry">
            <mxPoint x="190" y="440" as="sourcePoint" />
            <mxPoint x="240" y="390" as="targetPoint" />
            <Array as="points">
              <mxPoint x="384" y="420" />
              <mxPoint x="270" y="420" />
            </Array>
          </mxGeometry>
        </mxCell>
        <mxCell id="flsEj916UsUJstXm0F3e-28" value="" style="endArrow=none;html=1;rounded=0;entryX=0.75;entryY=1;entryDx=0;entryDy=0;exitX=0.25;exitY=0;exitDx=0;exitDy=0;" parent="1" source="fg8mFgqlS8MZBrGLz2TC-37" target="fg8mFgqlS8MZBrGLz2TC-13" edge="1">
          <mxGeometry width="50" height="50" relative="1" as="geometry">
            <mxPoint x="340" y="390" as="sourcePoint" />
            <mxPoint x="390" y="340" as="targetPoint" />
            <Array as="points">
              <mxPoint x="660" y="310" />
              <mxPoint x="620" y="310" />
              <mxPoint x="620" y="220" />
              <mxPoint x="575" y="220" />
            </Array>
          </mxGeometry>
        </mxCell>
        <mxCell id="flsEj916UsUJstXm0F3e-29" value="correct_file_error()" style="rounded=0;whiteSpace=wrap;html=1;" parent="1" vertex="1">
          <mxGeometry x="480" y="540" width="120" height="60" as="geometry" />
        </mxCell>
        <mxCell id="flsEj916UsUJstXm0F3e-33" value="" style="ellipse;whiteSpace=wrap;html=1;aspect=fixed;" parent="1" vertex="1">
          <mxGeometry x="460" y="365" width="10" height="10" as="geometry" />
        </mxCell>
        <mxCell id="flsEj916UsUJstXm0F3e-34" value="" style="endArrow=none;html=1;rounded=0;exitX=0;exitY=0.5;exitDx=0;exitDy=0;entryX=1;entryY=0.5;entryDx=0;entryDy=0;" parent="1" source="fg8mFgqlS8MZBrGLz2TC-34" target="flsEj916UsUJstXm0F3e-33" edge="1">
          <mxGeometry width="50" height="50" relative="1" as="geometry">
            <mxPoint x="480" y="370" as="sourcePoint" />
            <mxPoint x="431" y="295" as="targetPoint" />
          </mxGeometry>
        </mxCell>
        <mxCell id="flsEj916UsUJstXm0F3e-36" value="" style="ellipse;whiteSpace=wrap;html=1;aspect=fixed;" parent="1" vertex="1">
          <mxGeometry x="685" y="420" width="10" height="10" as="geometry" />
        </mxCell>
        <mxCell id="flsEj916UsUJstXm0F3e-39" value="" style="endArrow=none;html=1;rounded=0;entryX=0.5;entryY=1;entryDx=0;entryDy=0;exitX=0.5;exitY=0;exitDx=0;exitDy=0;" parent="1" source="fg8mFgqlS8MZBrGLz2TC-39" target="flsEj916UsUJstXm0F3e-36" edge="1">
          <mxGeometry width="50" height="50" relative="1" as="geometry">
            <mxPoint x="550" y="460" as="sourcePoint" />
            <mxPoint x="600" y="410" as="targetPoint" />
          </mxGeometry>
        </mxCell>
        <mxCell id="flsEj916UsUJstXm0F3e-41" value="" style="endArrow=none;html=1;rounded=0;entryX=0.5;entryY=1;entryDx=0;entryDy=0;exitX=1;exitY=0.75;exitDx=0;exitDy=0;" parent="1" source="flsEj916UsUJstXm0F3e-29" target="fg8mFgqlS8MZBrGLz2TC-39" edge="1">
          <mxGeometry width="50" height="50" relative="1" as="geometry">
            <mxPoint x="410" y="460" as="sourcePoint" />
            <mxPoint x="460" y="410" as="targetPoint" />
            <Array as="points">
              <mxPoint x="690" y="585" />
            </Array>
          </mxGeometry>
        </mxCell>
        <mxCell id="flsEj916UsUJstXm0F3e-43" value="&lt;div&gt;api.py&lt;/div&gt;" style="text;strokeColor=none;fillColor=none;html=1;fontSize=24;fontStyle=1;verticalAlign=middle;align=center;" parent="1" vertex="1">
          <mxGeometry x="12" y="330" width="78" height="30" as="geometry" />
        </mxCell>
        <mxCell id="flsEj916UsUJstXm0F3e-44" value="" style="ellipse;whiteSpace=wrap;html=1;aspect=fixed;" parent="1" vertex="1">
          <mxGeometry x="310" y="350" width="10" height="10" as="geometry" />
        </mxCell>
        <mxCell id="flsEj916UsUJstXm0F3e-45" value="" style="endArrow=none;html=1;rounded=0;entryX=1;entryY=0.25;entryDx=0;entryDy=0;exitX=0;exitY=0.5;exitDx=0;exitDy=0;" parent="1" source="flsEj916UsUJstXm0F3e-44" target="fg8mFgqlS8MZBrGLz2TC-28" edge="1">
          <mxGeometry width="50" height="50" relative="1" as="geometry">
            <mxPoint x="280" y="405" as="sourcePoint" />
            <mxPoint x="300" y="355" as="targetPoint" />
          </mxGeometry>
        </mxCell>
        <mxCell id="BNHHhz5GZTbi07ixVVYn-1" value="&lt;div&gt;full_scan()&lt;/div&gt;" style="rounded=0;whiteSpace=wrap;html=1;" parent="1" vertex="1">
          <mxGeometry x="40" y="640" width="120" height="60" as="geometry" />
        </mxCell>
        <mxCell id="BNHHhz5GZTbi07ixVVYn-2" value="" style="endArrow=none;html=1;rounded=0;exitX=0.5;exitY=0;exitDx=0;exitDy=0;entryX=0;entryY=0.5;entryDx=0;entryDy=0;" parent="1" source="BNHHhz5GZTbi07ixVVYn-1" target="fg8mFgqlS8MZBrGLz2TC-28" edge="1">
          <mxGeometry width="50" height="50" relative="1" as="geometry">
            <mxPoint x="390" y="550" as="sourcePoint" />
            <mxPoint x="440" y="500" as="targetPoint" />
            <Array as="points">
              <mxPoint x="100" y="560" />
              <mxPoint x="30" y="560" />
              <mxPoint x="30" y="370" />
            </Array>
          </mxGeometry>
        </mxCell>
        <mxCell id="BNHHhz5GZTbi07ixVVYn-4" value="choose_and_send_probe()" style="rounded=0;whiteSpace=wrap;html=1;" parent="1" vertex="1">
          <mxGeometry x="180" y="740" width="160" height="60" as="geometry" />
        </mxCell>
        <mxCell id="BNHHhz5GZTbi07ixVVYn-6" value="" style="edgeStyle=orthogonalEdgeStyle;rounded=0;orthogonalLoop=1;jettySize=auto;html=1;strokeColor=default;endArrow=none;endFill=0;entryX=0.25;entryY=1;entryDx=0;entryDy=0;exitX=0.25;exitY=0;exitDx=0;exitDy=0;" parent="1" source="BNHHhz5GZTbi07ixVVYn-5" target="BNHHhz5GZTbi07ixVVYn-1" edge="1">
          <mxGeometry relative="1" as="geometry" />
        </mxCell>
        <mxCell id="BNHHhz5GZTbi07ixVVYn-5" value="&lt;div&gt;parse_ipconfig()&lt;/div&gt;" style="rounded=0;whiteSpace=wrap;html=1;" parent="1" vertex="1">
          <mxGeometry x="40" y="740" width="120" height="60" as="geometry" />
        </mxCell>
        <mxCell id="BNHHhz5GZTbi07ixVVYn-7" value="" style="endArrow=none;html=1;rounded=0;entryX=0.5;entryY=1;entryDx=0;entryDy=0;exitX=0.5;exitY=0;exitDx=0;exitDy=0;" parent="1" source="BNHHhz5GZTbi07ixVVYn-4" target="BNHHhz5GZTbi07ixVVYn-1" edge="1">
          <mxGeometry width="50" height="50" relative="1" as="geometry">
            <mxPoint x="330" y="680" as="sourcePoint" />
            <mxPoint x="380" y="630" as="targetPoint" />
            <Array as="points">
              <mxPoint x="260" y="730" />
              <mxPoint x="100" y="730" />
            </Array>
          </mxGeometry>
        </mxCell>
        <mxCell id="BNHHhz5GZTbi07ixVVYn-9" value="" style="edgeStyle=orthogonalEdgeStyle;rounded=0;orthogonalLoop=1;jettySize=auto;html=1;endArrow=none;endFill=0;" parent="1" source="BNHHhz5GZTbi07ixVVYn-8" target="BNHHhz5GZTbi07ixVVYn-4" edge="1">
          <mxGeometry relative="1" as="geometry" />
        </mxCell>
        <mxCell id="BNHHhz5GZTbi07ixVVYn-8" value="match_response()" style="rounded=0;whiteSpace=wrap;html=1;" parent="1" vertex="1">
          <mxGeometry x="200" y="840" width="120" height="60" as="geometry" />
        </mxCell>
        <mxCell id="BNHHhz5GZTbi07ixVVYn-10" value="choose_probe()" style="rounded=0;whiteSpace=wrap;html=1;" parent="1" vertex="1">
          <mxGeometry x="385" y="840" width="120" height="60" as="geometry" />
        </mxCell>
        <mxCell id="BNHHhz5GZTbi07ixVVYn-11" value="" style="endArrow=none;html=1;rounded=0;entryX=0.75;entryY=1;entryDx=0;entryDy=0;exitX=0.5;exitY=0;exitDx=0;exitDy=0;" parent="1" source="BNHHhz5GZTbi07ixVVYn-10" target="BNHHhz5GZTbi07ixVVYn-4" edge="1">
          <mxGeometry width="50" height="50" relative="1" as="geometry">
            <mxPoint x="310" y="860" as="sourcePoint" />
            <mxPoint x="360" y="810" as="targetPoint" />
            <Array as="points">
              <mxPoint x="445" y="820" />
              <mxPoint x="300" y="820" />
            </Array>
          </mxGeometry>
        </mxCell>
        <mxCell id="BNHHhz5GZTbi07ixVVYn-13" value="" style="edgeStyle=orthogonalEdgeStyle;rounded=0;orthogonalLoop=1;jettySize=auto;html=1;endArrow=none;endFill=0;" parent="1" source="BNHHhz5GZTbi07ixVVYn-12" target="BNHHhz5GZTbi07ixVVYn-10" edge="1">
          <mxGeometry relative="1" as="geometry" />
        </mxCell>
        <mxCell id="BNHHhz5GZTbi07ixVVYn-12" value="get_nmap_probes()" style="rounded=0;whiteSpace=wrap;html=1;" parent="1" vertex="1">
          <mxGeometry x="385" y="940" width="120" height="60" as="geometry" />
        </mxCell>
        <mxCell id="BNHHhz5GZTbi07ixVVYn-14" value="get_match_info()" style="rounded=0;whiteSpace=wrap;html=1;" parent="1" vertex="1">
          <mxGeometry x="385" y="1040" width="120" height="60" as="geometry" />
        </mxCell>
        <mxCell id="BNHHhz5GZTbi07ixVVYn-15" value="" style="endArrow=none;html=1;rounded=0;exitX=0.5;exitY=0;exitDx=0;exitDy=0;entryX=0.5;entryY=1;entryDx=0;entryDy=0;" parent="1" source="BNHHhz5GZTbi07ixVVYn-14" target="BNHHhz5GZTbi07ixVVYn-12" edge="1">
          <mxGeometry width="50" height="50" relative="1" as="geometry">
            <mxPoint x="370" y="1020" as="sourcePoint" />
            <mxPoint x="420" y="970" as="targetPoint" />
          </mxGeometry>
        </mxCell>
        <mxCell id="BNHHhz5GZTbi07ixVVYn-17" value="info_to_cpe()" style="rounded=0;whiteSpace=wrap;html=1;" parent="1" vertex="1">
          <mxGeometry x="324" y="640" width="120" height="60" as="geometry" />
        </mxCell>
        <mxCell id="BNHHhz5GZTbi07ixVVYn-18" value="" style="endArrow=none;html=1;rounded=0;entryX=0.5;entryY=1;entryDx=0;entryDy=0;exitX=0.5;exitY=0;exitDx=0;exitDy=0;" parent="1" source="BNHHhz5GZTbi07ixVVYn-24" target="flsEj916UsUJstXm0F3e-22" edge="1">
          <mxGeometry width="50" height="50" relative="1" as="geometry">
            <mxPoint x="240" y="640" as="sourcePoint" />
            <mxPoint x="380" y="640" as="targetPoint" />
          </mxGeometry>
        </mxCell>
        <mxCell id="BNHHhz5GZTbi07ixVVYn-19" value="" style="endArrow=none;html=1;rounded=0;entryX=0.5;entryY=1;entryDx=0;entryDy=0;exitX=0.5;exitY=0;exitDx=0;exitDy=0;" parent="1" source="BNHHhz5GZTbi07ixVVYn-17" target="flsEj916UsUJstXm0F3e-24" edge="1">
          <mxGeometry width="50" height="50" relative="1" as="geometry">
            <mxPoint x="330" y="690" as="sourcePoint" />
            <mxPoint x="380" y="640" as="targetPoint" />
          </mxGeometry>
        </mxCell>
        <mxCell id="BNHHhz5GZTbi07ixVVYn-20" value="&lt;div&gt;get_network_and_host_ips()&lt;/div&gt;" style="rounded=0;whiteSpace=wrap;html=1;" parent="1" vertex="1">
          <mxGeometry x="360" y="740" width="170" height="60" as="geometry" />
        </mxCell>
        <mxCell id="BNHHhz5GZTbi07ixVVYn-21" value="" style="endArrow=none;html=1;rounded=0;entryX=0.75;entryY=1;entryDx=0;entryDy=0;exitX=0.5;exitY=0;exitDx=0;exitDy=0;" parent="1" source="BNHHhz5GZTbi07ixVVYn-20" target="BNHHhz5GZTbi07ixVVYn-1" edge="1">
          <mxGeometry width="50" height="50" relative="1" as="geometry">
            <mxPoint x="310" y="840" as="sourcePoint" />
            <mxPoint x="360" y="790" as="targetPoint" />
            <Array as="points">
              <mxPoint x="445" y="720" />
              <mxPoint x="130" y="720" />
            </Array>
          </mxGeometry>
        </mxCell>
        <mxCell id="BNHHhz5GZTbi07ixVVYn-22" value="" style="endArrow=none;html=1;rounded=0;entryX=0.25;entryY=1;entryDx=0;entryDy=0;exitX=0;exitY=0.5;exitDx=0;exitDy=0;" parent="1" source="BNHHhz5GZTbi07ixVVYn-5" target="fg8mFgqlS8MZBrGLz2TC-26" edge="1">
          <mxGeometry width="50" height="50" relative="1" as="geometry">
            <mxPoint x="340" y="680" as="sourcePoint" />
            <mxPoint x="390" y="630" as="targetPoint" />
            <Array as="points">
              <mxPoint x="30" y="770" />
              <mxPoint x="30" y="590" />
              <mxPoint x="70" y="590" />
            </Array>
          </mxGeometry>
        </mxCell>
        <mxCell id="BNHHhz5GZTbi07ixVVYn-23" value="is_same_version()" style="rounded=0;whiteSpace=wrap;html=1;" parent="1" vertex="1">
          <mxGeometry x="550" y="740" width="120" height="60" as="geometry" />
        </mxCell>
        <mxCell id="BNHHhz5GZTbi07ixVVYn-24" value="get_cpe_cves()" style="rounded=0;whiteSpace=wrap;html=1;" parent="1" vertex="1">
          <mxGeometry x="180" y="640" width="120" height="60" as="geometry" />
        </mxCell>
        <mxCell id="BNHHhz5GZTbi07ixVVYn-25" value="" style="endArrow=none;html=1;rounded=0;exitX=1;exitY=0.5;exitDx=0;exitDy=0;entryX=0.5;entryY=0;entryDx=0;entryDy=0;" parent="1" source="BNHHhz5GZTbi07ixVVYn-17" target="BNHHhz5GZTbi07ixVVYn-23" edge="1">
          <mxGeometry width="50" height="50" relative="1" as="geometry">
            <mxPoint x="450" y="600" as="sourcePoint" />
            <mxPoint x="500" y="550" as="targetPoint" />
            <Array as="points">
              <mxPoint x="610" y="670" />
            </Array>
          </mxGeometry>
        </mxCell>
        <mxCell id="BNHHhz5GZTbi07ixVVYn-27" value="models.py" style="text;strokeColor=none;fillColor=none;html=1;fontSize=24;fontStyle=1;verticalAlign=middle;align=center;" parent="1" vertex="1">
          <mxGeometry x="690" y="630" width="126" height="30" as="geometry" />
        </mxCell>
        <mxCell id="BNHHhz5GZTbi07ixVVYn-28" value="" style="ellipse;whiteSpace=wrap;html=1;aspect=fixed;" parent="1" vertex="1">
          <mxGeometry x="760" y="265" width="10" height="10" as="geometry" />
        </mxCell>
        <mxCell id="BNHHhz5GZTbi07ixVVYn-29" value="" style="endArrow=none;html=1;rounded=0;entryX=1;entryY=0.5;entryDx=0;entryDy=0;exitX=0;exitY=0.5;exitDx=0;exitDy=0;" parent="1" source="BNHHhz5GZTbi07ixVVYn-28" target="fg8mFgqlS8MZBrGLz2TC-11" edge="1">
          <mxGeometry width="50" height="50" relative="1" as="geometry">
            <mxPoint x="730" y="320" as="sourcePoint" />
            <mxPoint x="750" y="270" as="targetPoint" />
          </mxGeometry>
        </mxCell>
        <mxCell id="5-Tx1VhLo7BJH4hStsRz-1" value="" style="ellipse;whiteSpace=wrap;html=1;aspect=fixed;" parent="1" vertex="1">
          <mxGeometry x="130" y="165" width="10" height="10" as="geometry" />
        </mxCell>
        <mxCell id="5-Tx1VhLo7BJH4hStsRz-3" value="" style="endArrow=none;html=1;rounded=0;entryX=1;entryY=0.5;entryDx=0;entryDy=0;exitX=0;exitY=0.5;exitDx=0;exitDy=0;" parent="1" source="fg8mFgqlS8MZBrGLz2TC-2" target="5-Tx1VhLo7BJH4hStsRz-1" edge="1">
          <mxGeometry width="50" height="50" relative="1" as="geometry">
            <mxPoint x="190" y="230" as="sourcePoint" />
            <mxPoint x="240" y="180" as="targetPoint" />
          </mxGeometry>
        </mxCell>
        <mxCell id="5-Tx1VhLo7BJH4hStsRz-4" value="" style="endArrow=none;html=1;rounded=0;entryX=0.25;entryY=1;entryDx=0;entryDy=0;exitX=0.75;exitY=0;exitDx=0;exitDy=0;" parent="1" source="fg8mFgqlS8MZBrGLz2TC-28" target="fg8mFgqlS8MZBrGLz2TC-1" edge="1">
          <mxGeometry width="50" height="50" relative="1" as="geometry">
            <mxPoint x="130" y="190" as="sourcePoint" />
            <mxPoint x="180" y="140" as="targetPoint" />
            <Array as="points">
              <mxPoint x="270" y="290" />
              <mxPoint x="300" y="290" />
              <mxPoint x="300" y="120" />
              <mxPoint x="354" y="120" />
            </Array>
          </mxGeometry>
        </mxCell>
        <mxCell id="5-Tx1VhLo7BJH4hStsRz-5" value="" style="whiteSpace=wrap;html=1;aspect=fixed;" parent="1" vertex="1">
          <mxGeometry x="685" y="220" width="10" height="10" as="geometry" />
        </mxCell>
        <mxCell id="5-Tx1VhLo7BJH4hStsRz-6" value="" style="endArrow=none;html=1;rounded=0;entryX=0.5;entryY=1;entryDx=0;entryDy=0;exitX=0.5;exitY=0;exitDx=0;exitDy=0;" parent="1" source="fg8mFgqlS8MZBrGLz2TC-11" target="5-Tx1VhLo7BJH4hStsRz-5" edge="1">
          <mxGeometry width="50" height="50" relative="1" as="geometry">
            <mxPoint x="550" y="310" as="sourcePoint" />
            <mxPoint x="600" y="260" as="targetPoint" />
          </mxGeometry>
        </mxCell>
        <mxCell id="5-Tx1VhLo7BJH4hStsRz-8" value="" style="whiteSpace=wrap;html=1;aspect=fixed;" parent="1" vertex="1">
          <mxGeometry x="235" y="210" width="10" height="10" as="geometry" />
        </mxCell>
        <mxCell id="5-Tx1VhLo7BJH4hStsRz-9" value="" style="endArrow=none;html=1;rounded=0;exitX=0.5;exitY=0;exitDx=0;exitDy=0;entryX=0.75;entryY=1;entryDx=0;entryDy=0;" parent="1" source="5-Tx1VhLo7BJH4hStsRz-8" target="fg8mFgqlS8MZBrGLz2TC-2" edge="1">
          <mxGeometry width="50" height="50" relative="1" as="geometry">
            <mxPoint x="300" y="300" as="sourcePoint" />
            <mxPoint x="350" y="250" as="targetPoint" />
          </mxGeometry>
        </mxCell>
        <mxCell id="5-Tx1VhLo7BJH4hStsRz-10" value="" style="endArrow=none;html=1;rounded=0;exitX=0;exitY=0.75;exitDx=0;exitDy=0;entryX=1;entryY=0.75;entryDx=0;entryDy=0;" parent="1" source="flsEj916UsUJstXm0F3e-29" target="fg8mFgqlS8MZBrGLz2TC-28" edge="1">
          <mxGeometry width="50" height="50" relative="1" as="geometry">
            <mxPoint x="340" y="500" as="sourcePoint" />
            <mxPoint x="390" y="450" as="targetPoint" />
            <Array as="points">
              <mxPoint x="460" y="585" />
              <mxPoint x="460" y="420" />
              <mxPoint x="410" y="420" />
              <mxPoint x="410" y="385" />
            </Array>
          </mxGeometry>
        </mxCell>
        <mxCell id="hbBWC2cKHrLHLBAPnM5v-1" value="probe_device()" style="rounded=0;whiteSpace=wrap;html=1;" parent="1" vertex="1">
          <mxGeometry x="40" y="840" width="120" height="60" as="geometry" />
        </mxCell>
        <mxCell id="hbBWC2cKHrLHLBAPnM5v-2" value="" style="endArrow=none;html=1;rounded=0;exitX=0.25;exitY=1;exitDx=0;exitDy=0;entryX=0.5;entryY=0;entryDx=0;entryDy=0;" parent="1" source="BNHHhz5GZTbi07ixVVYn-4" target="hbBWC2cKHrLHLBAPnM5v-1" edge="1">
          <mxGeometry width="50" height="50" relative="1" as="geometry">
            <mxPoint x="390" y="880" as="sourcePoint" />
            <mxPoint x="440" y="830" as="targetPoint" />
            <Array as="points">
              <mxPoint x="220" y="820" />
              <mxPoint x="100" y="820" />
            </Array>
          </mxGeometry>
        </mxCell>
        <mxCell id="5uUWo1YpcPG25AOO8PSS-1" value="write_to_presets()" style="rounded=0;whiteSpace=wrap;html=1;" vertex="1" parent="1">
          <mxGeometry x="480" y="440" width="120" height="60" as="geometry" />
        </mxCell>
        <mxCell id="5uUWo1YpcPG25AOO8PSS-2" value="" style="endArrow=none;html=1;rounded=0;entryX=0.5;entryY=1;entryDx=0;entryDy=0;exitX=0.5;exitY=0;exitDx=0;exitDy=0;" edge="1" parent="1" source="5uUWo1YpcPG25AOO8PSS-1" target="fg8mFgqlS8MZBrGLz2TC-34">
          <mxGeometry width="50" height="50" relative="1" as="geometry">
            <mxPoint x="490" y="510" as="sourcePoint" />
            <mxPoint x="540" y="460" as="targetPoint" />
          </mxGeometry>
        </mxCell>
        <mxCell id="5uUWo1YpcPG25AOO8PSS-3" value="" style="endArrow=none;html=1;rounded=0;exitX=0.5;exitY=0;exitDx=0;exitDy=0;entryX=0.5;entryY=1;entryDx=0;entryDy=0;" edge="1" parent="1" source="flsEj916UsUJstXm0F3e-29" target="5uUWo1YpcPG25AOO8PSS-1">
          <mxGeometry width="50" height="50" relative="1" as="geometry">
            <mxPoint x="490" y="510" as="sourcePoint" />
            <mxPoint x="540" y="460" as="targetPoint" />
          </mxGeometry>
        </mxCell>
        <mxCell id="5uUWo1YpcPG25AOO8PSS-5" value="" style="endArrow=none;html=1;rounded=0;entryX=0.25;entryY=1;entryDx=0;entryDy=0;exitX=0.75;exitY=0;exitDx=0;exitDy=0;" edge="1" parent="1" source="5uUWo1YpcPG25AOO8PSS-1" target="fg8mFgqlS8MZBrGLz2TC-37">
          <mxGeometry width="50" height="50" relative="1" as="geometry">
            <mxPoint x="430" y="550" as="sourcePoint" />
            <mxPoint x="480" y="500" as="targetPoint" />
            <Array as="points">
              <mxPoint x="570" y="420" />
              <mxPoint x="660" y="420" />
            </Array>
          </mxGeometry>
        </mxCell>
      </root>
    </mxGraphModel>
  </diagram>
</mxfile>
